<svg width="233" height="115" viewBox="0 0 233 115" fill="none" xmlns="http://www.w3.org/2000/svg">
<g filter="url(#filter0_f_83_3)">
<path d="M40.4375 43.0156V31.0156H32.4453V43.0156H40.4375ZM40.4375 27.0078V15.0078H32.4453V27.0078H40.4375ZM24.4531 47V11H44.4453V15.0078H48.4531V27.0078H44.4453V31.0156H48.4531V43.0156H44.4453V47H24.4531ZM60.4531 47V43.0156H56.4688V11H64.4609V43.0156H72.4531V11H80.4688V43.0156H76.4609V47H60.4531ZM104.469 43.0156V31.0156H96.4766V43.0156H104.469ZM104.469 27.0078V15.0078H96.4766V27.0078H104.469ZM88.4844 47V11H108.477V15.0078H112.484V27.0078H108.477V31.0156H112.484V43.0156H108.477V47H88.4844ZM136.484 43.0156V31.0156H128.492V43.0156H136.484ZM136.484 27.0078V15.0078H128.492V27.0078H136.484ZM120.5 47V11H140.492V15.0078H144.5V27.0078H140.492V31.0156H144.5V43.0156H140.492V47H120.5ZM152.516 47V11H160.508V43.0156H176.516V47H152.516ZM184.531 47V11H208.531V15.0078H192.523V27.0078H204.523V31.0156H192.523V43.0156H208.531V47H184.531ZM12.4297 103V99.0156H8.44531V91H16.4375V99.0156H24.4297V87.0156H12.4297V83.0078H8.44531V71.0078H12.4297V67H28.4375V71.0078H32.4453V79H24.4297V71.0078H16.4375V83.0078H28.4375V87.0156H32.4453V99.0156H28.4375V103H12.4297ZM40.4609 103V67H48.4531V83.0078H56.4453V67H64.4609V103H56.4453V87.0156H48.4531V103H40.4609ZM88.4609 99.0156V71.0078H80.4688V99.0156H88.4609ZM76.4609 103V99.0156H72.4766V71.0078H76.4609V67H92.4688V71.0078H96.4766V99.0156H92.4688V103H76.4609ZM120.477 99.0156V71.0078H112.484V99.0156H120.477ZM108.477 103V99.0156H104.492V71.0078H108.477V67H124.484V71.0078H128.492V99.0156H124.484V103H108.477ZM144.5 103V71.0078H136.508V67H160.508V71.0078H152.492V103H144.5ZM168.523 103V67H192.523V71.0078H176.516V83.0078H188.516V87.0156H176.516V99.0156H192.523V103H168.523ZM216.523 83.0078V71.0078H208.531V83.0078H216.523ZM200.539 103V67H220.531V71.0078H224.539V83.0078H220.531V87.0156H224.539V103H216.523V87.0156H208.531V103H200.539Z" fill="#FF5EBE"/>
</g>
<path d="M38.4375 40.0156V28.0156H30.4453V40.0156H38.4375ZM38.4375 24.0078V12.0078H30.4453V24.0078H38.4375ZM22.4531 44V8H42.4453V12.0078H46.4531V24.0078H42.4453V28.0156H46.4531V40.0156H42.4453V44H22.4531ZM58.4531 44V40.0156H54.4688V8H62.4609V40.0156H70.4531V8H78.4688V40.0156H74.4609V44H58.4531ZM102.469 40.0156V28.0156H94.4766V40.0156H102.469ZM102.469 24.0078V12.0078H94.4766V24.0078H102.469ZM86.4844 44V8H106.477V12.0078H110.484V24.0078H106.477V28.0156H110.484V40.0156H106.477V44H86.4844ZM134.484 40.0156V28.0156H126.492V40.0156H134.484ZM134.484 24.0078V12.0078H126.492V24.0078H134.484ZM118.5 44V8H138.492V12.0078H142.5V24.0078H138.492V28.0156H142.5V40.0156H138.492V44H118.5ZM150.516 44V8H158.508V40.0156H174.516V44H150.516ZM182.531 44V8H206.531V12.0078H190.523V24.0078H202.523V28.0156H190.523V40.0156H206.531V44H182.531ZM10.4297 100V96.0156H6.44531V88H14.4375V96.0156H22.4297V84.0156H10.4297V80.0078H6.44531V68.0078H10.4297V64H26.4375V68.0078H30.4453V76H22.4297V68.0078H14.4375V80.0078H26.4375V84.0156H30.4453V96.0156H26.4375V100H10.4297ZM38.4609 100V64H46.4531V80.0078H54.4453V64H62.4609V100H54.4453V84.0156H46.4531V100H38.4609ZM86.4609 96.0156V68.0078H78.4688V96.0156H86.4609ZM74.4609 100V96.0156H70.4766V68.0078H74.4609V64H90.4688V68.0078H94.4766V96.0156H90.4688V100H74.4609ZM118.477 96.0156V68.0078H110.484V96.0156H118.477ZM106.477 100V96.0156H102.492V68.0078H106.477V64H122.484V68.0078H126.492V96.0156H122.484V100H106.477ZM142.5 100V68.0078H134.508V64H158.508V68.0078H150.492V100H142.5ZM166.523 100V64H190.523V68.0078H174.516V80.0078H186.516V84.0156H174.516V96.0156H190.523V100H166.523ZM214.523 80.0078V68.0078H206.531V80.0078H214.523ZM198.539 100V64H218.531V68.0078H222.539V80.0078H218.531V84.0156H222.539V100H214.523V84.0156H206.531V100H198.539Z" fill="#F5F5F5"/>
<defs>
<filter id="filter0_f_83_3" x="0.445312" y="3" width="232.094" height="108" filterUnits="userSpaceOnUse" color-interpolation-filters="sRGB">
<feFlood flood-opacity="0" result="BackgroundImageFix"/>
<feBlend mode="normal" in="SourceGraphic" in2="BackgroundImageFix" result="shape"/>
<feGaussianBlur stdDeviation="4" result="effect1_foregroundBlur_83_3"/>
</filter>
</defs>
</svg>
